<?xml version="1.0" encoding="utf-8"?>
<!-- Generator: Adobe Illustrator 27.9.0, SVG Export Plug-In . SVG Version: 6.00 Build 0)  -->
<svg version="1.1" id="Layer_2_00000065064952510194812120000011820525639769442973_"
	 xmlns="http://www.w3.org/2000/svg" xmlns:xlink="http://www.w3.org/1999/xlink" x="0px" y="0px" width="184px" height="40px"
	 viewBox="0 0 184 40" style="enable-background:new 0 0 184 40;" xml:space="preserve">
<style type="text/css">
	.st0{fill:#E21836;}
</style>
<g id="Layer_1-2">
	<path class="st0" d="M49.563,15.882v1.654h9.535v4.94h-9.535v1.643h9.535v5.65H43.114V10.332l-5.672,19.437H27.129l-5.661-19.437
		v19.437h-6.449V10.232h13.11l4.163,13.986l4.174-13.986h22.634v5.65H49.563L49.563,15.882z M6.405,10.232H0v19.548h14.031v-5.717
		H6.405V10.232z M104.077,10.232l5.706,19.548H103.1l-0.921-3.219h-6.505l-0.921,3.219H81.876l-8.847-10.124v10.124h-6.405V10.232
		h6.216l8.903,10.312V10.232h6.338v19.437l5.683-19.437H104.077z M100.592,21.032l-1.665-5.85l-1.665,5.85H100.592z M106.575,15.937
		h6.361v13.831h6.449V15.937h6.349v-5.706h-19.159L106.575,15.937L106.575,15.937L106.575,15.937z M126.711,29.779h6.449V10.232
		h-6.449V29.779z M155.416,20c0,2.997-1.01,5.461-3.008,7.315c-1.987,1.854-4.573,2.786-7.693,2.786h-0.078
		c-3.064,0-5.639-0.944-7.659-2.797c-2.02-1.865-3.042-4.318-3.042-7.304s1.01-5.439,3.008-7.304
		c1.976-1.854,4.562-2.797,7.681-2.797h0.078c3.119,0,5.706,0.944,7.693,2.797C154.406,14.561,155.416,17.025,155.416,20L155.416,20
		z M148.856,20c0-1.188-0.389-2.176-1.143-2.919c-0.766-0.755-1.765-1.132-2.997-1.132h-0.078c-1.221,0-2.231,0.377-2.997,1.132
		c-0.766,0.755-1.143,1.743-1.143,2.919s0.389,2.176,1.143,2.919c0.766,0.755,1.765,1.132,2.997,1.132h0.078
		c1.221,0,2.231-0.377,2.997-1.132C148.468,22.176,148.856,21.188,148.856,20z M171.301,10.232v10.312l-8.903-10.312h-6.216v19.548
		h6.405V19.656l8.847,10.124h6.216V10.232H171.301z"/>
	<g>
		<path class="st0" d="M182.08,12.363h-0.422v0.788h-0.4v-2.009h0.655c0.167,0,0.311,0.011,0.422,0.033s0.211,0.056,0.289,0.111
			s0.122,0.111,0.155,0.189s0.044,0.167,0.044,0.278s-0.033,0.222-0.089,0.311c-0.056,0.089-0.144,0.167-0.278,0.222l0.444,0.866
			h-0.444C182.479,13.151,182.08,12.363,182.08,12.363z M181.658,11.453v0.611h0.322c0.155,0,0.266-0.022,0.344-0.078
			c0.067-0.056,0.1-0.122,0.1-0.222c0-0.056-0.011-0.111-0.033-0.144c-0.022-0.044-0.055-0.067-0.1-0.1
			c-0.044-0.022-0.089-0.044-0.144-0.056c-0.055-0.011-0.122-0.011-0.189-0.011H181.658z"/>
		<path class="st0" d="M181.969,14.206c-1.121,0-2.031-0.91-2.031-2.031s0.91-2.031,2.031-2.031c1.121,0,2.031,0.91,2.031,2.031
			S183.09,14.206,181.969,14.206z M181.969,10.42c-0.966,0-1.754,0.788-1.754,1.754s0.788,1.754,1.754,1.754
			s1.754-0.788,1.754-1.754S182.934,10.42,181.969,10.42z"/>
	</g>
</g>
</svg>
